<svg xmlns="http://www.w3.org/2000/svg" viewBox="0 0 48 48">
  <rect width="48" height="48" rx="10" fill="#0e1410"/>
  <rect x="13" y="5" width="7" height="7" rx="1" fill="#00C561"/>
  <rect x="21" y="5" width="7" height="7" rx="1" fill="#00C561"/>
  <rect x="5" y="13" width="7" height="7" rx="1" fill="#00C561"/>
  <rect x="29" y="13" width="7" height="7" rx="1" fill="#00C561"/>
  <rect x="5" y="21" width="7" height="7" rx="1" fill="#00C561"/>
  <rect x="13" y="21" width="7" height="7" rx="1" fill="#00C561"/>
  <rect x="21" y="21" width="7" height="7" rx="1" fill="#00C561"/>
  <rect x="29" y="21" width="7" height="7" rx="1" fill="#00C561"/>
  <rect x="5" y="29" width="7" height="7" rx="1" fill="#00C561"/>
  <rect x="29" y="29" width="7" height="7" rx="1" fill="#00C561"/>
  <rect x="5" y="37" width="7" height="7" rx="1" fill="#00C561"/>
  <rect x="29" y="37" width="7" height="7" rx="1" fill="#00C561"/>
</svg>
